<svg width="206" height="87" viewBox="0 0 206 87" fill="none" xmlns="http://www.w3.org/2000/svg">
<g filter="url(#filter0_d_293_4060)">
<path fill-rule="evenodd" clip-rule="evenodd" d="M187.9 79.9C193.975 79.9 198.9 74.9751 198.9 68.9V17.9C198.9 11.8249 193.975 6.89999 187.9 6.89999H17.8999C11.8248 6.89999 6.8999 11.8249 6.8999 17.9V68.9C6.8999 74.9751 11.8248 79.9 17.8999 79.9H187.9ZM182.683 73.2636C188.758 73.2636 193.683 68.3388 193.683 62.2636V24.5364C193.683 18.4612 188.758 13.5364 182.683 13.5364H23.1173C17.0422 13.5364 12.1173 18.4612 12.1173 24.5364V62.2636C12.1173 68.3388 17.0422 73.2636 23.1173 73.2636H182.683Z" fill="url(#paint0_radial_293_4060)"/>
<path d="M182.683 13.5364C188.758 13.5364 193.683 18.4612 193.683 24.5364V62.2636C193.683 68.3388 188.758 73.2636 182.683 73.2636H23.1173C17.0422 73.2636 12.1173 68.3388 12.1173 62.2636V24.5364C12.1173 18.4612 17.0422 13.5364 23.1173 13.5364H182.683Z" fill="url(#paint1_radial_293_4060)"/>
<path d="M182.683 13.5364C188.758 13.5364 193.683 18.4612 193.683 24.5364V62.2636C193.683 68.3388 188.758 73.2636 182.683 73.2636H23.1173C17.0422 73.2636 12.1173 68.3388 12.1173 62.2636V24.5364C12.1173 18.4612 17.0422 13.5364 23.1173 13.5364H182.683Z" fill="#0C0100"/>
<path fill-rule="evenodd" clip-rule="evenodd" d="M187.9 79.9C193.975 79.9 198.9 74.9751 198.9 68.9V17.9C198.9 11.8249 193.975 6.89999 187.9 6.89999H17.8999C11.8248 6.89999 6.8999 11.8249 6.8999 17.9V68.9C6.8999 74.9751 11.8248 79.9 17.8999 79.9H187.9ZM182.683 73.2636C188.758 73.2636 193.683 68.3388 193.683 62.2636V24.5364C193.683 18.4612 188.758 13.5364 182.683 13.5364H23.1173C17.0422 13.5364 12.1173 18.4612 12.1173 24.5364V62.2636C12.1173 68.3388 17.0422 73.2636 23.1173 73.2636H182.683Z" stroke="url(#paint2_radial_293_4060)"/>
<path d="M182.683 13.5364C188.758 13.5364 193.683 18.4612 193.683 24.5364V62.2636C193.683 68.3388 188.758 73.2636 182.683 73.2636H23.1173C17.0422 73.2636 12.1173 68.3388 12.1173 62.2636V24.5364C12.1173 18.4612 17.0422 13.5364 23.1173 13.5364H182.683Z" stroke="url(#paint3_radial_293_4060)"/>
</g>
<defs>
<filter id="filter0_d_293_4060" x="-9.77516e-05" y="-6.19888e-06" width="205.8" height="86.8" filterUnits="userSpaceOnUse" color-interpolation-filters="sRGB">
<feFlood flood-opacity="0" result="BackgroundImageFix"/>
<feColorMatrix in="SourceAlpha" type="matrix" values="0 0 0 0 0 0 0 0 0 0 0 0 0 0 0 0 0 0 127 0" result="hardAlpha"/>
<feOffset/>
<feGaussianBlur stdDeviation="3.2"/>
<feComposite in2="hardAlpha" operator="out"/>
<feColorMatrix type="matrix" values="0 0 0 0 1 0 0 0 0 0.81625 0 0 0 0 0.475 0 0 0 0.25 0"/>
<feBlend mode="normal" in2="BackgroundImageFix" result="effect1_dropShadow_293_4060"/>
<feBlend mode="normal" in="SourceGraphic" in2="effect1_dropShadow_293_4060" result="shape"/>
</filter>
<radialGradient id="paint0_radial_293_4060" cx="0" cy="0" r="1" gradientTransform="matrix(138.783 -1.99091 0.467864 52.7663 78.8999 44.0636)" gradientUnits="userSpaceOnUse">
<stop stop-color="#C88B42"/>
<stop offset="1" stop-color="#593A14"/>
</radialGradient>
<radialGradient id="paint1_radial_293_4060" cx="0" cy="0" r="1" gradientTransform="matrix(138.783 -1.99091 0.467864 52.7663 78.8999 44.0636)" gradientUnits="userSpaceOnUse">
<stop stop-color="#C88B42"/>
<stop offset="1" stop-color="#593A14"/>
</radialGradient>
<radialGradient id="paint2_radial_293_4060" cx="0" cy="0" r="1" gradientTransform="matrix(-91.3044 86.9364 -20.4301 -34.7147 156.117 6.9)" gradientUnits="userSpaceOnUse">
<stop stop-color="#FABA6C"/>
<stop offset="1" stop-color="#462600"/>
</radialGradient>
<radialGradient id="paint3_radial_293_4060" cx="0" cy="0" r="1" gradientTransform="matrix(-91.3044 86.9364 -20.4301 -34.7147 156.117 6.9)" gradientUnits="userSpaceOnUse">
<stop stop-color="#FABA6C"/>
<stop offset="1" stop-color="#462600"/>
</radialGradient>
</defs>
</svg>
