<svg width="350" height="17" viewBox="0 0 350 17" fill="none" xmlns="http://www.w3.org/2000/svg">
<path d="M165.329 6.34098L161.772 7.42358C140.893 6.65027 91.5574 6.34098 74.545 6.34098C53.6662 6.34098 16.703 7.62977 0 8.19685C16.2391 9.17635 53.9815 10.0526 74.545 9.58879C95.1145 9.1248 141.202 8.81548 161.772 8.19687L165.02 9.58879C165.587 9.38258 166.69 8.78457 166.566 8.04221C166.443 7.29986 165.69 6.59874 165.329 6.34098Z" fill="url(#paint0_linear_305_36166)"/>
<path d="M176.774 6.34098C175.846 5.41303 175.691 2.93849 175.227 9.53674e-06C174.763 2.93851 174.609 5.25837 173.371 6.34098C172.134 7.42358 169.35 7.88756 167.804 8.04221C166.257 8.19687 171.051 8.04218 173.217 9.74347C174.936 11.0948 175.073 17.631 175.073 16.3937C175.073 15.0018 175.073 10.9807 176.928 9.74347C178.784 8.50621 183.424 8.11954 182.187 8.04221C179.563 7.87822 178.054 7.62099 176.774 6.34098Z" fill="url(#paint1_linear_305_36166)"/>
<path d="M184.671 9.12483L188.228 8.04222C209.107 8.81553 258.443 9.12483 275.455 9.12483C296.334 9.12483 333.297 7.83603 350 7.26895C333.761 6.28945 296.018 5.41315 275.455 5.87701C254.885 6.34101 208.798 6.65032 188.228 7.26893L184.98 5.87701C184.413 6.08322 183.31 6.68123 183.434 7.42359C183.557 8.16595 184.31 8.86706 184.671 9.12483Z" fill="url(#paint2_linear_305_36166)"/>
<defs>
<linearGradient id="paint0_linear_305_36166" x1="0" y1="8.27436" x2="182.394" y2="8.27436" gradientUnits="userSpaceOnUse">
<stop stop-color="#C19A6B"/>
<stop offset="1" stop-color="#EBD6A9"/>
</linearGradient>
<linearGradient id="paint1_linear_305_36166" x1="0" y1="8.27436" x2="182.394" y2="8.27436" gradientUnits="userSpaceOnUse">
<stop stop-color="#C19A6B"/>
<stop offset="1" stop-color="#EBD6A9"/>
</linearGradient>
<linearGradient id="paint2_linear_305_36166" x1="350" y1="7.19145" x2="167.606" y2="7.19145" gradientUnits="userSpaceOnUse">
<stop stop-color="#C19A6B"/>
<stop offset="1" stop-color="#EBD6A9"/>
</linearGradient>
</defs>
</svg>
